<?xml version="1.0" standalone="no"?>
<!DOCTYPE svg PUBLIC "-//W3C//DTD SVG 20010904//EN"
 "http://www.w3.org/TR/2001/REC-SVG-20010904/DTD/svg10.dtd">
<svg version="1.0" xmlns="http://www.w3.org/2000/svg"
 width="900.000000pt" height="900.000000pt" viewBox="0 0 900.000000 900.000000"
 preserveAspectRatio="xMidYMid meet">
<metadata>
Created by potrace 1.11, written by Peter Selinger 2001-2013
</metadata>
<g transform="translate(0.000000,900.000000) scale(0.100000,-0.100000)"
fill="#000000" stroke="none">
<path d="M2870 4540 l0 -2360 430 0 430 0 0 195 c0 123 4 195 10 195 6 0 10
-4 10 -9 0 -5 33 -44 73 -87 174 -186 418 -316 679 -360 79 -13 134 -16 243
-11 239 11 414 52 602 142 372 178 624 479 748 895 87 291 93 701 14 1012 -45
179 -135 389 -225 523 -322 483 -812 688 -1404 589 -255 -43 -447 -138 -595
-296 -40 -43 -76 -78 -79 -78 -3 0 -5 17 -4 38 0 20 0 472 -1 1005 l-1 967
-465 0 -465 0 0 -2360z m1835 -105 c192 -53 355 -183 434 -346 66 -137 83
-219 84 -394 0 -123 -3 -164 -21 -230 -34 -124 -94 -236 -169 -315 -85 -91
-156 -137 -278 -180 -99 -35 -101 -35 -270 -35 -191 0 -249 11 -370 71 -176
86 -300 243 -357 451 -17 63 -21 107 -22 233 -1 183 12 246 80 387 92 193 257
318 484 368 86 19 321 13 405 -10z"/>
<path d="M971 4934 c-636 -107 -1045 -715 -960 -1429 37 -309 159 -566 366
-766 155 -151 335 -245 563 -295 104 -23 350 -27 461 -9 236 40 438 138 603
295 187 177 308 403 363 677 27 135 24 443 -5 580 -111 513 -468 869 -952 948
-116 18 -325 18 -439 -1z m408 -709 c94 -29 163 -67 226 -126 103 -97 153
-213 162 -374 9 -185 -40 -330 -149 -439 -108 -107 -245 -159 -423 -159 -293
0 -505 158 -560 418 -41 196 7 403 123 528 84 89 171 136 302 162 83 17 248
12 319 -10z"/>
<path d="M7525 4743 c-130 -15 -202 -27 -274 -45 -457 -111 -658 -438 -638
-1041 10 -327 102 -615 267 -836 97 -130 67 -138 288 75 l192 186 -67 73
c-132 141 -192 279 -200 461 -5 96 -3 122 16 185 52 169 170 277 326 298 l55
8 1 -91 c0 -50 2 -109 4 -131 2 -22 6 -105 10 -185 3 -80 7 -158 10 -175 2
-16 9 -66 15 -110 46 -328 172 -597 338 -718 126 -93 244 -130 417 -131 196
-1 339 51 466 171 164 155 241 356 243 633 1 219 -39 379 -133 523 -43 65
-171 197 -192 197 -5 0 -9 5 -9 10 0 6 53 10 140 10 l140 0 0 320 0 320 -692
-1 c-381 -1 -706 -4 -723 -6z m645 -647 c155 -33 259 -135 317 -311 21 -67 26
-99 27 -195 0 -98 -3 -124 -23 -174 -42 -106 -127 -175 -217 -176 -166 -1
-274 146 -314 425 -12 86 -25 407 -17 427 8 21 134 23 227 4z"/>
</g>
</svg>
